<svg id="visual" viewBox="0 0 900 600" width="900" height="600" xmlns="http://www.w3.org/2000/svg" xmlns:xlink="http://www.w3.org/1999/xlink" version="1.1"><path d="M537 0L610 0L610 33L494 33L494 67L437 67L437 100L448 100L448 133L473 133L473 167L564 167L564 200L587 200L587 233L511 233L511 267L493 267L493 300L426 300L426 333L561 333L561 367L486 367L486 400L565 400L565 433L573 433L573 467L436 467L436 500L485 500L485 533L488 533L488 567L593 567L593 600L0 600L0 567L0 567L0 533L0 533L0 500L0 500L0 467L0 467L0 433L0 433L0 400L0 400L0 367L0 367L0 333L0 333L0 300L0 300L0 267L0 267L0 233L0 233L0 200L0 200L0 167L0 167L0 133L0 133L0 100L0 100L0 67L0 67L0 33L0 33L0 0L0 0Z" fill="#6a6ff9"></path><path d="M483 0L404 0L404 33L340 33L340 67L447 67L447 100L337 100L337 133L307 133L307 167L322 167L322 200L401 200L401 233L334 233L334 267L419 267L419 300L399 300L399 333L318 333L318 367L352 367L352 400L363 400L363 433L376 433L376 467L419 467L419 500L313 500L313 533L463 533L463 567L373 567L373 600L0 600L0 567L0 567L0 533L0 533L0 500L0 500L0 467L0 467L0 433L0 433L0 400L0 400L0 367L0 367L0 333L0 333L0 300L0 300L0 267L0 267L0 233L0 233L0 200L0 200L0 167L0 167L0 133L0 133L0 100L0 100L0 67L0 67L0 33L0 33L0 0L0 0Z" fill="#7378f5"></path><path d="M270 0L243 0L243 33L310 33L310 67L278 67L278 100L242 100L242 133L271 133L271 167L277 167L277 200L285 200L285 233L246 233L246 267L260 267L260 300L327 300L327 333L252 333L252 367L336 367L336 400L207 400L207 433L340 433L340 467L312 467L312 500L299 500L299 533L296 533L296 567L283 567L283 600L0 600L0 567L0 567L0 533L0 533L0 500L0 500L0 467L0 467L0 433L0 433L0 400L0 400L0 367L0 367L0 333L0 333L0 300L0 300L0 267L0 267L0 233L0 233L0 200L0 200L0 167L0 167L0 133L0 133L0 100L0 100L0 67L0 67L0 33L0 33L0 0L0 0Z" fill="#7b80f1"></path><path d="M91 0L123 0L123 33L128 33L128 67L209 67L209 100L94 100L94 133L86 133L86 167L203 167L203 200L178 200L178 233L198 233L198 267L162 267L162 300L86 300L86 333L80 333L80 367L163 367L163 400L115 400L115 433L139 433L139 467L206 467L206 500L187 500L187 533L131 533L131 567L210 567L210 600L0 600L0 567L0 567L0 533L0 533L0 500L0 500L0 467L0 467L0 433L0 433L0 400L0 400L0 367L0 367L0 333L0 333L0 300L0 300L0 267L0 267L0 233L0 233L0 200L0 200L0 167L0 167L0 133L0 133L0 100L0 100L0 67L0 67L0 33L0 33L0 0L0 0Z" fill="#8388ed"></path></svg>