<?xml version="1.0" encoding="utf-8"?>
<!-- Generator: Adobe Illustrator 24.1.2, SVG Export Plug-In . SVG Version: 6.00 Build 0)  -->
<svg version="1.1" id="Layer_1_1_" xmlns="http://www.w3.org/2000/svg" xmlns:xlink="http://www.w3.org/1999/xlink" x="0px" y="0px"
	 viewBox="0 0 48 48" style="enable-background:new 0 0 48 48;" xml:space="preserve">
<style type="text/css">
	.st0{fill:#F5BC00;}
	.st1{fill:#F55376;}
	.st2{fill:#00B3D7;}
	.st3{fill:#00B569;}
</style>
<path class="st0" d="M25,29L25,29c0,2.2,1.8,4,4,4h10c2.2,0,4-1.8,4-4l0,0c0-2.2-1.8-4-4-4H29C26.8,25,25,26.8,25,29z"/>
<path class="st0" d="M25,35v4c0,2.2,1.8,4,4,4l0,0c2.2,0,4-1.8,4-4l0,0c0-2.2-1.8-4-4-4H25z"/>
<path class="st1" d="M19,25L19,25c-2.2,0-4,1.8-4,4v10c0,2.2,1.8,4,4,4l0,0c2.2,0,4-1.8,4-4V29C23,26.8,21.2,25,19,25z"/>
<path class="st1" d="M13,25H9c-2.2,0-4,1.8-4,4l0,0c0,2.2,1.8,4,4,4l0,0c2.2,0,4-1.8,4-4V25z"/>
<path class="st2" d="M23,19L23,19c0-2.2-1.8-4-4-4H9c-2.2,0-4,1.8-4,4l0,0c0,2.2,1.8,4,4,4h10C21.2,23,23,21.2,23,19z"/>
<path class="st2" d="M23,13V9c0-2.2-1.8-4-4-4l0,0c-2.2,0-4,1.8-4,4l0,0c0,2.2,1.8,4,4,4H23z"/>
<path class="st3" d="M29,23L29,23c2.2,0,4-1.8,4-4V9c0-2.2-1.8-4-4-4l0,0c-2.2,0-4,1.8-4,4v10C25,21.2,26.8,23,29,23z"/>
<path class="st3" d="M35,23h4c2.2,0,4-1.8,4-4l0,0c0-2.2-1.8-4-4-4l0,0c-2.2,0-4,1.8-4,4V23z"/>
</svg>