<svg id="visual" viewBox="0 0 900 600" width="900" height="600" xmlns="http://www.w3.org/2000/svg" xmlns:xlink="http://www.w3.org/1999/xlink" version="1.1"><path d="M0 352L11.5 344.5C23 337 46 322 69 313C92 304 115 301 138.2 271C161.3 241 184.7 184 207.8 166C231 148 254 169 277 189C300 209 323 228 346 232.5C369 237 392 227 415.2 243.2C438.3 259.3 461.7 301.7 484.8 318C508 334.3 531 324.7 554 317.2C577 309.7 600 304.3 623 314.2C646 324 669 349 692.2 317.3C715.3 285.7 738.7 197.3 761.8 177.2C785 157 808 205 831 220.7C854 236.3 877 219.7 888.5 211.3L900 203L900 0L888.5 0C877 0 854 0 831 0C808 0 785 0 761.8 0C738.7 0 715.3 0 692.2 0C669 0 646 0 623 0C600 0 577 0 554 0C531 0 508 0 484.8 0C461.7 0 438.3 0 415.2 0C392 0 369 0 346 0C323 0 300 0 277 0C254 0 231 0 207.8 0C184.7 0 161.3 0 138.2 0C115 0 92 0 69 0C46 0 23 0 11.5 0L0 0Z" fill="#7276DA" stroke-linecap="round" stroke-linejoin="miter"></path></svg>